<svg xmlns="http://www.w3.org/2000/svg" width="1280" height="720" viewBox="0 0 1280 720">
  <defs><linearGradient id="bg" x1="0" y1="0" x2="1280" y2="720" gradientUnits="userSpaceOnUse"><stop stop-color="#15102B"/><stop offset=".52" stop-color="#080B14"/><stop offset="1" stop-color="#07151A"/></linearGradient><linearGradient id="accent"><stop stop-color="#8B5CFF"/><stop offset="1" stop-color="#2DE2E6"/></linearGradient><radialGradient id="orb"><stop stop-color="#7456F6" stop-opacity=".27"/><stop offset="1" stop-color="#7456F6" stop-opacity="0"/></radialGradient><pattern id="grid" width="48" height="48" patternUnits="userSpaceOnUse"><path d="M48 0H0V48" fill="none" stroke="#B6ADFF" stroke-opacity=".04"/></pattern><filter id="glow" x="-100%" y="-100%" width="300%" height="300%"><feGaussianBlur stdDeviation="7" result="b"/><feMerge><feMergeNode in="b"/><feMergeNode in="SourceGraphic"/></feMerge></filter></defs>
  <rect width="1280" height="720" fill="url(#bg)"/><rect width="1280" height="720" fill="url(#grid)"/><circle cx="620" cy="340" r="430" fill="url(#orb)"/>
  <g font-family="Segoe UI, Arial, sans-serif"><text x="76" y="88" fill="#8C80FF" font-size="14" font-weight="700" letter-spacing="2.5">04 · PROVE THE RESULT</text><text x="76" y="163" fill="#F8F7FF" font-size="52" font-weight="750" letter-spacing="-2">Less context. Same measured quality.</text><text x="77" y="206" fill="#A5A2B4" font-size="19">Public fixtures, raw ledger, exact validators, honest limitations.</text></g>
  <g transform="translate(76 265)" font-family="Segoe UI, Arial, sans-serif">
    <rect width="514" height="337" rx="25" fill="#10141F" stroke="#A99BFF" stroke-opacity=".2"/>
    <text x="28" y="47" fill="#8F8A9E" font-size="13" font-weight="650" letter-spacing="1.5">ESTIMATED MODEL-VISIBLE PROMPT</text><text x="28" y="124" fill="#FFFFFF" font-size="63" font-weight="780" letter-spacing="-2">73.3%</text><text x="29" y="158" fill="#A9A5B5" font-size="17">smaller in the initial paired benchmark</text>
    <g transform="translate(29 206)"><text x="0" y="16" fill="#7F7A8D" font-size="13">baseline</text><rect x="79" y="4" width="365" height="17" rx="8.5" fill="#27233C"/><rect x="79" y="4" width="365" height="17" rx="8.5" fill="#805EFF" fill-opacity=".78"/><text x="454" y="17" fill="#B7B3C4" font-family="Consolas, monospace" font-size="12">75,767</text><text x="0" y="66" fill="#7F7A8D" font-size="13">lean</text><rect x="79" y="54" width="365" height="17" rx="8.5" fill="#27233C"/><rect x="79" y="54" width="97" height="17" rx="8.5" fill="#2DE2E6" filter="url(#glow)"/><text x="454" y="67" fill="#B7B3C4" font-family="Consolas, monospace" font-size="12">20,218</text></g>
  </g>
  <g transform="translate(618 265)" font-family="Segoe UI, Arial, sans-serif">
    <g><rect width="270" height="160" rx="22" fill="#10141F" stroke="#2DE2E6" stroke-opacity=".22"/><text x="24" y="40" fill="#8F8A9E" font-size="12" font-weight="650" letter-spacing="1.2">EXACT AGGREGATE TOKENS</text><text x="24" y="100" fill="#FFFFFF" font-size="44" font-weight="770">29.1%</text><text x="25" y="130" fill="#9A96A8" font-size="14">fewer tokens</text></g>
    <g transform="translate(288)"><rect width="270" height="160" rx="22" fill="#10141F" stroke="#43E7C4" stroke-opacity=".22"/><text x="24" y="40" fill="#8F8A9E" font-size="12" font-weight="650" letter-spacing="1.2">QUALITY GATES</text><text x="24" y="100" fill="#FFFFFF" font-size="44" font-weight="770">20 / 20</text><text x="25" y="130" fill="#9A96A8" font-size="14">same validators passed</text></g>
    <rect y="179" width="558" height="158" rx="22" fill="#0E121C" stroke="#FFFFFF" stroke-opacity=".1"/>
    <text x="25" y="216" fill="#777386" font-size="12" font-weight="650" letter-spacing="1.2">REPRODUCIBLE EVIDENCE</text><g font-family="Consolas, monospace" font-size="14"><text x="25" y="257" fill="#43E7C4">✓</text><text x="50" y="257" fill="#D9D6E2">10 paired tasks · Luna + Terra + Sol</text><text x="25" y="291" fill="#43E7C4">✓</text><text x="50" y="291" fill="#D9D6E2">raw JSONL · SHA256 · public caveats</text><text x="25" y="322" fill="#6E6A7C" font-size="12">Initial microbenchmark, not a universal claim.</text></g>
  </g>
  <g transform="translate(76 664)"><rect width="1128" height="3" rx="1.5" fill="#25293A"/><rect width="940" height="3" rx="1.5" fill="url(#accent)"/><text x="1144" y="5" fill="#6F6C7C" font-family="Consolas, monospace" font-size="12">05 / 06</text></g>
</svg>
